<svg width="30" height="30" viewBox="0 0 30 30" fill="none" xmlns="http://www.w3.org/2000/svg">
<path d="M13.75 21.25H16.25L16.625 19.375C16.875 19.2708 17.1096 19.1617 17.3287 19.0475C17.5471 18.9325 17.7708 18.7917 18 18.625L19.8125 19.1875L21.0625 17.0625L19.625 15.8125C19.6667 15.5208 19.6875 15.25 19.6875 15C19.6875 14.75 19.6667 14.4792 19.625 14.1875L21.0625 12.9375L19.8125 10.8125L18 11.375C17.7708 11.2083 17.5471 11.0675 17.3287 10.9525C17.1096 10.8383 16.875 10.7292 16.625 10.625L16.25 8.75H13.75L13.375 10.625C13.125 10.7292 12.8904 10.8383 12.6713 10.9525C12.4529 11.0675 12.2292 11.2083 12 11.375L10.1875 10.8125L8.9375 12.9375L10.375 14.1875C10.3333 14.4792 10.3125 14.75 10.3125 15C10.3125 15.25 10.3333 15.5208 10.375 15.8125L8.9375 17.0625L10.1875 19.1875L12 18.625C12.2292 18.7917 12.4529 18.9325 12.6713 19.0475C12.8904 19.1617 13.125 19.2708 13.375 19.375L13.75 21.25ZM15 17.5C14.3125 17.5 13.7242 17.255 13.235 16.765C12.745 16.2758 12.5 15.6875 12.5 15C12.5 14.3125 12.745 13.7238 13.235 13.2337C13.7242 12.7446 14.3125 12.5 15 12.5C15.6875 12.5 16.2762 12.7446 16.7663 13.2337C17.2554 13.7238 17.5 14.3125 17.5 15C17.5 15.6875 17.2554 16.2758 16.7663 16.765C16.2762 17.255 15.6875 17.5 15 17.5ZM6.25 26.25C5.5625 26.25 4.97375 26.0054 4.48375 25.5163C3.99458 25.0263 3.75 24.4375 3.75 23.75V6.25C3.75 5.5625 3.99458 4.97375 4.48375 4.48375C4.97375 3.99458 5.5625 3.75 6.25 3.75H23.75C24.4375 3.75 25.0263 3.99458 25.5163 4.48375C26.0054 4.97375 26.25 5.5625 26.25 6.25V23.75C26.25 24.4375 26.0054 25.0263 25.5163 25.5163C25.0263 26.0054 24.4375 26.25 23.75 26.25H6.25ZM6.25 23.75H23.75V6.25H6.25V23.75Z" fill="#828282"/>
</svg>
