<svg width="30" height="30" viewBox="0 0 30 30" fill="none" xmlns="http://www.w3.org/2000/svg">
<path d="M24.375 3.75H5.625C5.12772 3.75 4.65081 3.94754 4.29917 4.29917C3.94754 4.65081 3.75 5.12772 3.75 5.625V24.375C3.75 24.8723 3.94754 25.3492 4.29917 25.7008C4.65081 26.0525 5.12772 26.25 5.625 26.25H24.375C24.8723 26.25 25.3492 26.0525 25.7008 25.7008C26.0525 25.3492 26.25 24.8723 26.25 24.375V5.625C26.25 5.12772 26.0525 4.65081 25.7008 4.29917C25.3492 3.94754 24.8723 3.75 24.375 3.75Z" stroke="#828282" stroke-width="2.5" stroke-linecap="round" stroke-linejoin="round"/>
<path d="M13.125 19.375L16.25 21.875L21.25 15.625M8.75 9.375H21.25M8.75 14.375H13.75" stroke="#828282" stroke-width="2.5" stroke-linecap="round" stroke-linejoin="round"/>
</svg>
